<svg width="20" height="20" viewBox="0 0 20 20" fill="none" xmlns="http://www.w3.org/2000/svg">
<path d="M17.3667 1.85L7.75 8.63333C6.81667 9.3 6.81667 10.7 7.75 11.35L17.3667 18.15C18.4833 18.9167 20 18.1333 20 16.7833L20 3.21666C20 1.86666 18.4833 1.08333 17.3667 1.85ZM3.33333 18.3333L3.33334 1.66666C3.33334 0.749995 2.58334 -5.33731e-06 1.66667 -5.41745e-06C0.750002 -5.49759e-06 1.68289e-06 0.749994 1.60275e-06 1.66666L1.45705e-07 18.3333C6.55671e-08 19.25 0.75 20 1.66667 20C2.58333 20 3.33333 19.25 3.33333 18.3333Z" fill="#777777"/>
</svg>
